<?xml version="1.0" standalone="no"?>
<!DOCTYPE svg PUBLIC "-//W3C//DTD SVG 20010904//EN"
 "http://www.w3.org/TR/2001/REC-SVG-20010904/DTD/svg10.dtd">
<svg version="1.0" xmlns="http://www.w3.org/2000/svg"
 width="564.000000pt" height="724.000000pt" viewBox="0 0 564.000000 724.000000"
 preserveAspectRatio="xMidYMid meet">

<g transform="translate(0.000000,724.000000) scale(0.100000,-0.100000)"
fill="#000000" stroke="none">
<path d="M2775 7073 c-55 -41 -228 -220 -312 -323 -201 -246 -390 -526 -522
-772 l-53 -98 956 0 c526 0 956 3 956 6 0 9 -89 172 -153 279 -33 55 -67 114
-77 130 -83 143 -295 423 -448 591 -149 164 -201 206 -260 211 -40 4 -53 0
-87 -24z"/>
<path d="M1802 5703 c-164 -345 -307 -768 -396 -1168 -93 -417 -126 -723 -126
-1168 l0 -238 -57 -62 c-215 -232 -367 -445 -515 -719 -225 -416 -370 -881
-423 -1358 -18 -166 -20 -376 -2 -409 20 -39 59 -62 118 -68 49 -5 58 -2 91
23 20 16 62 47 93 69 30 22 82 60 114 85 33 25 121 90 195 145 282 207 341
250 420 310 33 25 61 44 62 42 2 -1 8 -51 14 -111 18 -174 37 -201 150 -210
213 -18 2396 -25 2597 -8 90 7 118 54 130 221 3 50 10 91 16 91 5 0 22 -10 37
-22 15 -13 37 -30 50 -38 12 -8 46 -33 74 -55 28 -22 61 -47 73 -55 11 -8 146
-109 299 -225 267 -201 327 -244 386 -274 57 -29 145 16 169 86 18 56 5 346
-24 543 -61 403 -165 742 -333 1085 -69 141 -82 165 -163 300 -110 182 -343
491 -430 569 -20 18 -21 29 -21 180 -1 707 -83 1247 -287 1871 -75 229 -139
387 -263 648 l-22 47 -983 0 -982 0 -61 -127z m1261 -624 c103 -35 250 -127
315 -199 131 -146 200 -418 157 -625 -17 -83 -98 -251 -152 -315 -92 -111
-277 -212 -433 -235 -66 -10 -208 -8 -261 4 -121 27 -288 121 -370 208 -73 76
-138 204 -170 333 -18 74 -16 249 5 330 9 36 36 106 62 157 77 155 209 268
394 338 124 47 320 49 453 4z"/>
<path d="M2716 4944 c-230 -56 -406 -286 -406 -534 0 -298 243 -550 530 -550
287 0 530 252 530 550 0 250 -176 479 -411 535 -78 18 -165 18 -243 -1z"/>
<path d="M1900 800 c0 -3 -64 -7 -142 -8 -78 -2 -152 -8 -165 -13 -13 -5 -31
-24 -40 -43 l-16 -35 117 -243 c64 -134 128 -253 142 -265 l25 -23 1042 1
c573 0 1050 4 1060 8 13 5 49 85 119 266 90 234 98 261 87 283 -25 46 -55 52
-267 57 -108 3 -312 8 -452 11 -321 8 -1510 11 -1510 4z"/>
</g>
</svg>
