<?xml version="1.0" standalone="no"?>
<!DOCTYPE svg PUBLIC "-//W3C//DTD SVG 20010904//EN"
 "http://www.w3.org/TR/2001/REC-SVG-20010904/DTD/svg10.dtd">
<svg version="1.0" xmlns="http://www.w3.org/2000/svg"
 width="5472.000000pt" height="4220.000000pt" viewBox="0 0 5472.000000 4220.000000"
 preserveAspectRatio="xMidYMid meet">

<g transform="translate(0.000000,4220.000000) scale(0.100000,-0.100000)"
fill="#000000" stroke="none">
<path d="M47857 20314 c-23 -12 -34 -13 -68 -2 -37 11 -43 10 -55 -6 -7 -11
-15 -24 -17 -30 -3 -8 -17 -7 -52 2 -44 12 -50 11 -70 -8 -23 -22 -50 -26 -60
-10 -10 16 -65 12 -71 -5 -3 -8 -14 -17 -24 -20 -10 -3 -30 -17 -44 -30 -18
-16 -39 -25 -60 -25 -18 0 -44 -9 -58 -19 -14 -11 -48 -23 -76 -27 -30 -4 -58
-14 -68 -25 -9 -11 -24 -19 -32 -19 -8 0 -27 -11 -44 -25 -16 -14 -38 -25 -47
-25 -10 0 -30 -10 -44 -22 -14 -13 -42 -34 -62 -48 -20 -14 -46 -35 -58 -47
-11 -13 -25 -23 -31 -23 -6 0 -19 -9 -31 -20 -40 -39 -143 -120 -154 -120 -5
0 -15 -9 -21 -20 -6 -11 -50 -59 -98 -107 -47 -49 -113 -119 -145 -158 -53
-64 -141 -164 -209 -238 -16 -17 -28 -35 -28 -42 0 -7 -9 -20 -21 -31 -12 -10
-27 -31 -34 -45 -8 -14 -29 -44 -47 -66 -18 -23 -46 -58 -63 -79 -16 -20 -41
-50 -55 -65 -42 -45 -60 -72 -60 -88 0 -8 -13 -29 -29 -46 -16 -16 -42 -51
-58 -76 -51 -83 -81 -125 -110 -155 -16 -16 -35 -44 -42 -61 -7 -18 -17 -33
-22 -33 -8 0 -29 -35 -63 -107 -18 -35 -41 -71 -104 -155 -23 -31 -42 -60 -42
-64 0 -3 -11 -19 -25 -36 -14 -16 -25 -35 -25 -42 0 -8 -8 -24 -19 -37 -10
-13 -24 -42 -32 -64 -7 -22 -31 -63 -51 -92 -21 -29 -38 -59 -38 -67 0 -9 -13
-30 -28 -48 -15 -18 -41 -58 -57 -88 -16 -30 -42 -77 -57 -105 -36 -67 -63
-123 -79 -164 -7 -18 -22 -45 -34 -60 -13 -14 -26 -41 -29 -58 -4 -18 -13 -36
-20 -40 -15 -9 -66 -108 -66 -127 0 -7 -13 -33 -30 -57 -16 -24 -30 -56 -30
-71 0 -15 -7 -34 -16 -42 -9 -9 -20 -33 -26 -54 -13 -48 -56 -138 -74 -153 -7
-6 -16 -27 -20 -48 -3 -20 -14 -48 -24 -62 -10 -14 -23 -41 -28 -60 -16 -52
-55 -141 -75 -169 -9 -13 -17 -43 -17 -65 0 -28 -8 -52 -25 -75 -14 -19 -25
-40 -25 -48 0 -8 -9 -25 -20 -39 -11 -14 -22 -40 -26 -58 -3 -19 -15 -41 -25
-51 -10 -9 -19 -25 -19 -36 0 -17 -23 -70 -71 -160 -10 -20 -19 -47 -19 -58 0
-28 -52 -147 -101 -231 -21 -36 -41 -77 -44 -91 -4 -15 -15 -34 -26 -44 -10
-9 -19 -23 -19 -30 0 -7 -22 -56 -50 -110 -27 -54 -50 -105 -50 -114 0 -10 -7
-23 -16 -30 -8 -8 -22 -27 -30 -44 -8 -17 -27 -51 -44 -76 -16 -25 -39 -62
-50 -82 -11 -21 -24 -38 -29 -38 -5 0 -14 -13 -19 -29 -6 -16 -26 -51 -46 -79
-19 -28 -42 -67 -50 -86 -8 -20 -20 -36 -25 -36 -6 0 -17 -12 -25 -28 -8 -15
-29 -44 -48 -65 -18 -20 -44 -53 -58 -73 -53 -77 -170 -213 -187 -218 -10 -4
-31 -22 -48 -42 -62 -74 -131 -140 -157 -152 -16 -6 -28 -16 -28 -21 0 -5 -15
-15 -32 -22 -18 -7 -39 -21 -46 -31 -7 -10 -20 -18 -28 -18 -8 0 -36 -20 -62
-45 -27 -26 -56 -45 -69 -45 -13 0 -30 -11 -39 -25 -9 -14 -24 -25 -33 -25
-10 0 -32 -11 -51 -25 -19 -14 -42 -25 -52 -25 -9 0 -25 -9 -35 -19 -10 -11
-35 -22 -56 -26 -21 -4 -42 -16 -48 -26 -5 -11 -18 -19 -29 -19 -10 0 -32 -11
-48 -25 -17 -14 -33 -25 -38 -25 -4 0 -18 -9 -30 -21 -12 -11 -42 -23 -66 -26
-23 -3 -52 -14 -63 -24 -11 -9 -33 -21 -50 -25 -16 -3 -37 -13 -46 -20 -8 -8
-31 -19 -50 -25 -19 -7 -45 -20 -58 -31 -13 -10 -36 -18 -51 -18 -15 0 -35 -9
-44 -19 -10 -10 -37 -24 -60 -30 -24 -6 -49 -17 -56 -26 -7 -8 -20 -15 -30
-15 -9 0 -34 -11 -54 -25 -20 -14 -47 -25 -60 -25 -13 0 -34 -9 -48 -19 -13
-11 -38 -23 -54 -27 -16 -4 -40 -15 -53 -26 -13 -10 -38 -18 -55 -18 -19 0
-42 -9 -55 -22 -13 -11 -44 -25 -69 -30 -25 -4 -54 -17 -64 -28 -10 -11 -31
-20 -47 -20 -15 0 -36 -9 -45 -19 -10 -11 -31 -23 -46 -26 -16 -3 -38 -14 -49
-25 -12 -10 -43 -21 -69 -25 -25 -4 -63 -15 -84 -26 -20 -10 -46 -19 -56 -19
-11 0 -31 -9 -45 -21 -15 -11 -44 -23 -64 -26 -21 -3 -47 -14 -58 -23 -11 -10
-41 -21 -67 -24 -25 -4 -51 -13 -58 -21 -18 -22 -111 -63 -170 -76 -30 -6 -62
-17 -70 -25 -9 -7 -36 -16 -60 -20 -25 -3 -56 -14 -70 -23 -14 -10 -40 -21
-58 -24 -19 -4 -45 -16 -59 -27 -15 -12 -41 -20 -63 -20 -26 0 -45 -8 -64 -25
-15 -14 -35 -25 -44 -25 -9 0 -39 -12 -67 -25 -27 -14 -56 -25 -64 -25 -8 0
-23 -8 -33 -17 -12 -10 -46 -20 -89 -24 -46 -5 -78 -15 -96 -28 -14 -12 -38
-21 -52 -21 -15 0 -44 -9 -66 -20 -21 -11 -55 -23 -74 -26 -20 -4 -47 -15 -61
-25 -14 -9 -45 -20 -70 -23 -24 -4 -52 -14 -61 -22 -9 -8 -41 -22 -70 -29 -29
-8 -55 -18 -58 -24 -4 -5 -20 -13 -36 -16 -17 -4 -44 -16 -60 -26 -17 -10 -62
-21 -100 -24 -43 -4 -80 -14 -96 -25 -15 -10 -44 -22 -65 -26 -22 -4 -57 -15
-79 -24 -22 -9 -55 -20 -74 -24 -19 -3 -42 -13 -51 -21 -9 -8 -39 -18 -66 -21
-27 -3 -61 -15 -76 -25 -15 -10 -33 -19 -40 -19 -7 0 -27 -9 -44 -19 -17 -10
-46 -22 -65 -26 -19 -4 -67 -18 -108 -31 -40 -13 -91 -24 -113 -24 -23 0 -55
-9 -72 -19 -17 -10 -46 -22 -65 -26 -18 -4 -52 -16 -75 -26 -22 -10 -57 -19
-77 -19 -22 0 -48 -10 -69 -25 -23 -17 -47 -25 -74 -25 -24 0 -55 -9 -76 -22
-34 -20 -221 -76 -287 -84 -17 -2 -44 -11 -60 -19 -15 -8 -48 -15 -73 -15 -27
0 -65 -10 -95 -25 -27 -13 -60 -25 -72 -25 -12 0 -45 -9 -73 -20 -28 -11 -65
-20 -82 -20 -17 0 -56 -11 -87 -24 -31 -13 -83 -30 -116 -37 -33 -7 -71 -19
-85 -26 -14 -7 -32 -13 -40 -13 -8 0 -31 -8 -50 -18 -19 -11 -66 -22 -103 -25
-40 -4 -82 -14 -100 -25 -18 -11 -45 -23 -62 -26 -40 -9 -187 -66 -201 -77 -6
-5 -32 -12 -59 -15 -26 -4 -54 -15 -64 -24 -9 -10 -43 -23 -76 -31 -33 -7 -67
-18 -75 -25 -8 -6 -31 -15 -50 -19 -19 -4 -49 -16 -66 -26 -17 -10 -45 -19
-61 -19 -17 0 -42 -9 -56 -20 -14 -11 -40 -23 -59 -26 -18 -4 -40 -12 -48 -19
-32 -27 -136 -75 -162 -75 -15 0 -39 -11 -53 -24 -15 -14 -40 -28 -56 -31 -16
-4 -31 -11 -34 -15 -9 -15 -127 -67 -167 -74 -21 -4 -41 -13 -45 -20 -5 -8
-24 -21 -43 -30 -55 -27 -100 -53 -119 -70 -10 -9 -25 -16 -34 -16 -8 0 -29
-11 -45 -25 -17 -14 -38 -25 -48 -25 -16 0 -45 -16 -126 -72 -15 -10 -38 -23
-50 -28 -13 -6 -43 -26 -68 -45 -25 -19 -55 -39 -67 -45 -12 -5 -31 -18 -43
-30 -11 -11 -27 -20 -36 -20 -9 0 -41 -20 -70 -45 -28 -25 -59 -45 -68 -45 -9
0 -26 -11 -38 -25 -12 -14 -27 -25 -33 -25 -6 0 -33 -20 -60 -45 -28 -25 -53
-45 -56 -45 -3 0 -20 -12 -36 -27 -17 -16 -43 -37 -57 -48 -15 -11 -42 -32
-60 -47 -19 -16 -37 -28 -40 -28 -4 0 -39 -30 -77 -68 -38 -37 -84 -78 -101
-92 -57 -46 -428 -423 -428 -435 0 -10 -56 -81 -107 -137 -24 -26 -43 -51 -43
-56 0 -5 -18 -27 -40 -48 -22 -22 -40 -44 -40 -51 0 -6 -11 -25 -25 -41 -14
-17 -25 -34 -25 -38 0 -5 -20 -31 -45 -59 -25 -27 -45 -55 -45 -62 0 -7 -11
-23 -25 -35 -14 -12 -25 -28 -25 -36 0 -8 -10 -26 -22 -41 -54 -65 -128 -180
-128 -199 0 -7 -8 -25 -18 -40 -11 -15 -30 -45 -44 -67 -14 -22 -33 -53 -44
-69 -30 -46 -92 -156 -119 -211 -13 -27 -28 -57 -33 -65 -14 -23 -61 -122 -72
-150 -5 -14 -14 -32 -20 -40 -5 -8 -16 -31 -25 -50 -8 -19 -19 -42 -24 -50
-27 -41 -111 -226 -111 -244 0 -12 -12 -43 -25 -71 -14 -27 -25 -55 -25 -62 0
-7 -11 -29 -25 -49 -14 -20 -25 -46 -25 -56 0 -11 -9 -31 -20 -45 -11 -14 -20
-37 -20 -51 0 -14 -11 -48 -24 -76 -58 -125 -66 -146 -73 -192 -3 -27 -14 -59
-24 -72 -10 -13 -21 -44 -25 -70 -4 -26 -15 -63 -25 -82 -11 -19 -19 -49 -19
-66 0 -17 -9 -42 -19 -56 -11 -13 -22 -46 -27 -73 -4 -27 -17 -72 -30 -100
-13 -27 -24 -67 -24 -88 0 -21 -8 -59 -19 -85 -10 -26 -23 -69 -29 -97 -6 -27
-15 -68 -21 -90 -5 -22 -15 -76 -22 -120 -6 -44 -18 -93 -26 -109 -8 -15 -18
-63 -22 -106 -5 -42 -11 -82 -15 -88 -16 -26 -66 -248 -72 -319 -3 -43 -17
-119 -30 -170 -16 -61 -24 -119 -24 -176 0 -47 -5 -98 -11 -114 -5 -15 -12
-41 -14 -58 -2 -16 -8 -70 -14 -120 -6 -49 -12 -146 -15 -215 -4 -128 -21
-210 -43 -210 -7 0 -13 -10 -13 -23 0 -16 9 -26 29 -33 24 -10 29 -18 35 -60
3 -28 14 -60 23 -74 9 -13 20 -46 24 -73 5 -27 16 -58 25 -68 8 -9 20 -37 25
-60 5 -23 19 -53 29 -67 11 -13 20 -32 20 -42 0 -10 9 -29 20 -43 11 -14 20
-35 20 -46 0 -12 9 -29 20 -39 11 -9 25 -34 31 -54 5 -21 14 -38 19 -38 5 0
20 -19 32 -41 37 -67 44 -79 62 -97 16 -17 72 -87 104 -130 17 -24 148 -167
167 -183 6 -5 47 -38 92 -74 45 -35 84 -69 88 -75 3 -5 15 -10 25 -10 11 0 24
-9 30 -20 6 -11 17 -20 25 -20 7 0 27 -11 43 -25 17 -14 35 -25 42 -25 7 0 25
-11 42 -25 16 -14 38 -25 48 -25 9 0 23 -7 30 -15 7 -8 30 -20 51 -26 21 -7
46 -20 55 -31 10 -10 31 -18 49 -18 18 0 46 -11 65 -25 21 -16 47 -25 69 -25
20 0 50 -9 67 -19 17 -10 51 -22 75 -26 24 -4 56 -14 71 -21 16 -8 65 -19 110
-25 46 -6 103 -19 128 -29 27 -10 87 -20 148 -24 57 -3 112 -11 123 -16 31
-17 109 -28 209 -31 52 -1 124 -9 160 -17 95 -21 245 -29 624 -31 187 -1 344
-5 350 -9 25 -16 870 -39 1578 -42 316 -2 392 -5 415 -17 23 -12 94 -14 404
-14 206 0 386 4 400 8 13 5 210 6 438 3 357 -4 417 -3 435 10 17 12 79 16 321
22 342 9 555 20 571 30 6 4 174 8 375 9 200 1 436 6 524 11 88 5 194 11 235
12 41 2 93 8 115 14 22 5 92 11 155 11 101 1 339 14 485 26 28 2 102 9 165 14
63 5 194 10 291 10 127 1 188 5 217 15 23 8 56 12 76 9 18 -3 49 0 67 5 19 6
102 14 184 17 83 3 201 10 263 16 62 6 115 9 118 6 3 -3 22 0 42 7 21 7 108
16 194 20 95 4 176 13 205 22 29 9 116 19 223 24 102 5 194 14 220 23 25 8 92
18 150 21 58 4 146 14 195 22 50 8 131 19 180 24 50 5 110 16 135 25 25 9 99
21 165 25 66 5 140 17 165 25 25 9 90 21 145 27 55 5 117 16 137 23 20 8 67
17 105 21 37 4 82 14 98 24 20 12 58 19 116 22 58 3 95 10 112 21 14 9 65 23
115 31 49 8 98 19 109 24 11 6 44 14 74 17 30 4 65 15 79 24 15 11 55 21 99
25 46 4 86 14 106 26 18 11 43 20 56 20 13 1 42 8 64 16 22 9 68 22 102 29 35
7 74 20 88 29 14 9 46 19 72 22 27 3 66 14 88 24 44 21 112 44 195 67 30 8 63
22 72 30 9 9 39 18 65 21 26 3 59 13 72 23 12 10 39 21 60 25 20 3 48 14 63
25 15 10 40 19 56 19 16 0 46 11 66 25 20 14 47 25 60 25 13 0 34 9 48 19 13
11 42 24 65 30 22 6 46 18 53 26 7 8 22 15 34 15 12 0 37 11 56 25 19 14 46
25 61 25 15 0 41 11 57 25 17 14 37 25 45 25 8 0 25 8 38 19 13 10 38 21 55
25 18 4 40 16 49 26 9 10 34 21 55 25 21 4 46 15 56 26 9 10 22 19 29 19 6 0
26 11 45 25 19 14 42 25 51 25 10 0 24 9 31 19 8 11 27 23 43 27 17 4 38 13
47 21 18 16 64 43 116 68 18 8 41 24 52 35 11 11 29 20 39 20 10 0 21 7 24 15
4 8 21 21 39 28 18 8 39 21 47 30 7 10 21 17 31 17 10 0 24 7 31 17 8 9 29 22
47 30 18 7 35 20 39 28 3 8 11 15 18 15 7 0 29 14 50 30 21 17 43 30 49 30 6
0 17 9 24 20 7 11 19 20 27 20 8 0 20 9 27 20 7 11 18 20 24 20 6 0 21 11 33
24 13 13 34 27 47 30 13 4 28 15 34 26 6 11 15 20 21 20 6 0 34 19 62 43 29
24 64 51 79 60 15 9 56 44 91 77 36 33 69 60 75 60 6 0 15 6 19 14 4 7 31 32
58 56 154 130 495 460 495 479 0 5 6 14 14 18 7 4 50 51 94 103 45 52 101 118
126 145 25 28 45 56 46 63 0 7 19 34 43 60 39 42 63 74 92 121 6 9 28 39 51
66 22 28 47 61 54 75 7 14 16 27 19 30 10 8 71 111 71 119 0 5 7 14 16 22 8 7
24 29 35 48 11 20 31 54 44 76 13 22 33 58 45 80 11 22 27 51 35 65 15 26 31
59 61 120 9 19 20 42 25 50 5 8 16 29 24 47 8 17 19 34 25 38 5 3 15 25 21 48
6 23 19 52 30 65 10 14 19 33 19 42 0 19 38 110 71 173 11 21 22 54 25 74 2
20 11 44 18 52 8 9 19 36 26 61 7 25 15 50 19 55 4 6 14 37 21 70 7 33 22 77
32 97 9 20 21 63 24 95 4 32 14 72 22 88 17 32 32 98 63 262 10 57 25 116 33
132 9 16 19 80 24 153 5 68 15 135 22 147 6 13 18 89 26 170 7 80 18 189 24
241 6 52 13 289 16 525 6 433 -1 643 -30 920 -9 77 -15 175 -16 218 0 44 -9
113 -19 155 -12 47 -22 132 -26 217 -5 99 -12 153 -25 185 -11 28 -20 85 -23
150 -3 58 -13 125 -22 150 -9 25 -20 90 -24 145 -5 59 -15 113 -25 131 -10 19
-20 74 -25 137 -4 61 -13 113 -21 122 -7 8 -16 55 -21 103 -5 48 -17 113 -29
144 -11 32 -20 83 -20 115 0 38 -8 74 -21 103 -14 29 -23 74 -27 125 -2 47
-12 95 -22 115 -10 19 -21 66 -25 104 -4 39 -16 86 -26 105 -13 24 -19 56 -19
99 0 44 -6 75 -21 103 -12 24 -24 75 -29 124 -5 46 -15 96 -23 112 -8 15 -17
60 -21 98 -4 39 -16 87 -26 108 -13 25 -20 58 -20 98 0 45 -6 72 -25 107 -19
35 -25 62 -25 107 0 42 -6 73 -21 100 -11 23 -23 69 -26 110 -3 39 -14 86 -23
105 -10 19 -20 67 -22 107 -3 46 -12 83 -25 105 -14 22 -22 59 -26 115 -4 49
-13 93 -22 106 -8 14 -18 55 -22 93 -3 38 -14 85 -23 104 -10 19 -21 71 -25
114 -4 44 -14 90 -22 103 -8 12 -19 57 -24 99 -4 42 -17 103 -29 135 -11 33
-20 78 -20 102 0 24 -9 60 -21 82 -13 26 -23 69 -27 121 -4 45 -14 91 -23 105
-9 13 -19 55 -23 93 -4 38 -14 82 -22 98 -9 17 -19 64 -24 107 -5 43 -17 93
-29 116 -15 29 -21 57 -21 108 0 50 -5 78 -19 101 -11 19 -21 59 -24 102 -3
44 -14 86 -26 110 -15 27 -21 57 -21 99 0 43 -7 74 -25 110 -19 38 -24 66 -25
119 0 51 -5 77 -21 102 -13 21 -23 62 -29 116 -5 46 -15 97 -23 113 -8 17 -18
66 -21 109 -4 44 -16 99 -27 122 -14 32 -19 66 -19 136 -1 60 -6 107 -17 133
-18 48 -25 97 -55 400 -19 189 -23 286 -22 550 1 286 3 342 28 530 14 116 35
235 46 265 11 30 19 78 20 105 0 30 7 60 16 74 9 12 24 53 34 89 23 88 37 127
66 183 13 26 24 55 24 64 0 10 20 52 44 94 24 42 46 86 50 99 4 12 16 27 27
32 10 6 19 16 19 22 0 16 44 80 108 156 50 60 62 82 43 82 -5 0 -23 12 -40 26
l-31 25 -162 -4 c-90 -2 -408 -4 -708 -4 -300 0 -590 0 -645 0 -55 0 -125 -4
-155 -8 -38 -5 -79 -2 -132 9 -90 19 -77 19 -111 0z m-3552 -10409 c22 -8 87
-16 145 -20 58 -4 204 -17 325 -30 121 -13 253 -27 293 -31 40 -4 90 -15 110
-25 29 -15 59 -19 147 -19 77 0 133 -6 185 -20 41 -11 93 -20 115 -20 22 0 78
-7 125 -15 47 -8 126 -20 175 -26 50 -6 137 -21 195 -34 58 -13 156 -26 218
-29 62 -3 121 -10 131 -16 11 -5 64 -15 118 -20 54 -6 116 -16 138 -22 22 -5
90 -14 150 -20 61 -5 148 -18 194 -29 47 -11 146 -24 220 -30 75 -6 153 -17
174 -25 20 -7 70 -16 110 -20 39 -3 90 -11 112 -19 22 -7 110 -19 195 -25 90
-7 178 -20 210 -30 33 -11 103 -21 176 -25 83 -4 138 -12 173 -26 34 -13 76
-19 127 -19 52 0 88 -6 117 -19 24 -11 80 -22 132 -26 50 -4 100 -13 113 -21
12 -8 60 -20 105 -26 48 -7 92 -19 106 -30 13 -10 38 -18 56 -18 18 0 44 -9
58 -20 14 -11 47 -23 74 -27 26 -3 59 -14 72 -24 12 -10 38 -21 56 -25 19 -3
41 -15 51 -25 9 -10 25 -19 35 -19 10 0 25 -8 35 -17 9 -10 38 -25 63 -33 46
-15 46 -15 46 -60 0 -39 -4 -46 -28 -58 -15 -7 -38 -23 -51 -35 -60 -54 -125
-102 -153 -111 -11 -4 -28 -15 -38 -26 -10 -11 -27 -20 -38 -20 -10 0 -32 -11
-49 -25 -16 -14 -40 -25 -52 -25 -13 0 -34 -9 -47 -19 -14 -11 -51 -22 -84
-26 -33 -4 -76 -16 -95 -26 -70 -36 -448 -57 -655 -36 -44 4 -132 12 -195 16
-76 5 -126 14 -149 25 -24 13 -67 19 -150 23 -77 4 -131 11 -161 23 -25 10
-72 21 -105 24 -33 4 -80 13 -105 20 -25 8 -95 19 -157 25 -61 7 -129 19 -150
28 -26 11 -79 17 -163 20 -82 3 -146 11 -185 23 -33 10 -100 21 -150 25 -49 3
-110 12 -135 20 -25 7 -106 16 -180 19 -151 7 -288 22 -338 38 -19 5 -147 14
-285 19 -139 5 -283 13 -322 19 -118 17 -376 30 -731 35 -378 5 -464 6 -526 4
-24 0 -56 0 -73 1 -65 4 -199 -20 -220 -40 -12 -11 -27 -20 -34 -20 -6 0 -23
-12 -36 -26 -19 -21 -25 -38 -25 -73 0 -79 -79 -224 -129 -236 -14 -4 -33 -13
-42 -21 -9 -8 -43 -19 -77 -24 -33 -6 -76 -17 -96 -25 -50 -21 -302 -21 -333
0 -11 8 -60 19 -108 24 -48 6 -93 15 -99 20 -7 6 -46 15 -87 22 -40 6 -86 20
-101 30 -15 10 -53 22 -85 25 -32 4 -69 15 -83 24 -14 9 -45 20 -70 24 -24 4
-52 14 -61 22 -9 8 -38 18 -65 23 -27 4 -65 17 -84 29 -23 15 -51 22 -84 22
-30 0 -61 7 -80 19 -17 10 -53 22 -81 26 -27 4 -55 11 -62 17 -6 5 -74 17
-150 27 -76 9 -149 23 -163 31 -18 10 -90 16 -250 22 -124 4 -268 12 -320 18
-140 15 -706 38 -1093 46 -87 1 -172 7 -189 13 -46 16 -2069 15 -2123 -1 -22
-6 -80 -12 -130 -14 -201 -5 -513 -24 -560 -33 -85 -18 -124 -22 -305 -30 -96
-4 -200 -13 -230 -20 -116 -25 -149 -30 -259 -36 -62 -4 -134 -13 -160 -20
-25 -7 -82 -16 -126 -19 -44 -4 -107 -15 -140 -25 -33 -11 -103 -22 -156 -24
-62 -3 -108 -11 -129 -22 -18 -9 -81 -23 -140 -31 -59 -8 -124 -21 -143 -29
-20 -8 -51 -15 -69 -15 -18 0 -47 -8 -63 -18 -19 -12 -59 -21 -108 -25 -50 -3
-88 -12 -110 -25 -17 -11 -57 -23 -86 -26 -30 -4 -80 -16 -110 -27 -30 -10
-67 -19 -82 -19 -14 0 -37 -9 -50 -19 -14 -11 -51 -22 -84 -26 -33 -4 -76 -16
-95 -25 -79 -40 -163 -60 -174 -41 -11 17 10 80 34 104 12 12 46 53 77 92 70
89 121 135 148 135 12 0 36 11 55 25 19 14 43 25 54 25 12 0 36 9 54 20 18 11
47 20 65 20 20 0 47 10 67 25 23 17 47 25 74 25 26 0 47 7 61 20 12 12 44 24
71 29 27 4 65 15 84 23 19 9 55 19 80 23 24 3 58 14 75 24 16 10 56 21 88 25
33 3 79 15 102 26 24 11 55 20 68 20 13 0 35 8 48 19 17 13 48 20 104 24 48 3
98 13 125 25 27 13 80 23 135 28 56 4 103 14 125 25 19 11 50 19 68 19 18 0
58 8 90 19 31 10 104 22 162 25 66 5 120 14 146 25 28 13 81 21 165 26 68 4
149 14 179 22 30 8 98 19 152 23 53 5 112 16 131 23 23 10 96 17 228 22 196 7
281 15 354 33 22 6 170 16 330 22 159 7 298 16 309 22 11 6 149 15 315 20 163
5 337 11 387 12 49 2 101 9 115 16 36 20 2323 20 2359 0 14 -7 63 -14 115 -16
346 -9 667 -24 682 -32 10 -6 56 -11 103 -13 l85 -4 5 52 c3 28 13 60 23 70 9
11 17 24 17 30 0 11 71 106 83 112 5 2 24 16 42 32 18 16 37 29 42 29 6 0 18
9 27 19 10 11 31 23 46 26 15 3 36 15 46 26 9 10 27 19 38 19 12 0 40 9 64 20
24 11 66 22 94 26 28 4 76 15 107 25 52 17 99 18 611 18 432 -1 564 -4 595
-14z"/>
<path d="M49980 20100 c-19 -23 -43 -49 -52 -58 -10 -9 -18 -22 -18 -29 0 -7
-9 -18 -20 -25 -11 -7 -20 -18 -20 -25 0 -7 -13 -28 -30 -46 -16 -19 -30 -39
-30 -44 0 -6 -8 -21 -19 -34 -10 -13 -33 -53 -52 -89 -18 -36 -38 -72 -45 -80
-7 -8 -17 -35 -24 -60 -7 -25 -17 -52 -24 -60 -16 -19 -55 -131 -68 -194 -5
-27 -16 -59 -24 -72 -8 -12 -19 -58 -24 -101 -4 -43 -15 -94 -23 -113 -8 -19
-22 -100 -31 -180 -9 -80 -21 -168 -26 -197 -16 -90 -13 -652 5 -751 8 -48 19
-160 24 -249 7 -116 14 -170 26 -193 12 -23 19 -72 24 -159 5 -92 11 -133 24
-151 10 -15 19 -56 22 -100 4 -41 15 -100 25 -130 10 -30 21 -85 24 -122 4
-37 15 -86 26 -110 13 -28 20 -65 20 -108 0 -47 6 -74 20 -98 12 -19 23 -60
26 -95 4 -34 15 -82 24 -107 10 -25 21 -75 23 -112 3 -42 12 -79 23 -95 12
-19 20 -58 25 -118 4 -57 15 -107 28 -135 12 -26 21 -66 21 -95 0 -31 8 -66
20 -90 11 -22 23 -71 27 -110 3 -38 14 -86 24 -106 10 -20 21 -68 25 -105 4
-38 15 -91 25 -117 11 -26 19 -69 19 -95 0 -29 8 -62 22 -87 14 -27 23 -65 26
-115 3 -46 12 -90 24 -113 11 -22 22 -70 25 -110 3 -40 12 -85 21 -102 8 -16
18 -62 23 -101 4 -40 17 -91 28 -113 15 -28 21 -59 21 -102 0 -44 6 -71 20
-94 12 -20 22 -59 26 -106 4 -41 15 -94 24 -119 10 -25 21 -74 24 -108 3 -35
15 -84 26 -109 12 -27 20 -67 20 -100 0 -35 7 -68 22 -96 13 -27 24 -73 29
-129 5 -48 15 -101 24 -118 8 -16 18 -58 21 -92 4 -35 13 -74 22 -88 9 -15 18
-60 22 -112 5 -64 11 -93 25 -108 12 -14 20 -44 25 -97 4 -43 14 -92 23 -108
8 -17 19 -64 23 -105 3 -41 15 -92 25 -112 12 -23 21 -71 25 -125 5 -55 14
-101 26 -123 11 -21 18 -55 18 -88 0 -29 9 -81 21 -115 12 -34 24 -101 29
-149 4 -55 13 -96 24 -113 12 -18 19 -55 22 -118 3 -51 14 -117 24 -147 10
-30 21 -91 24 -135 3 -45 15 -113 26 -153 11 -40 20 -104 20 -144 1 -48 8 -92
21 -128 15 -41 22 -96 29 -215 5 -99 14 -176 24 -201 9 -26 19 -110 26 -225 6
-101 15 -202 20 -224 5 -22 15 -218 20 -435 11 -405 2 -919 -19 -1045 -6 -33
-15 -132 -22 -220 -6 -89 -18 -176 -26 -195 -8 -19 -18 -85 -22 -146 -5 -60
-14 -121 -22 -135 -7 -13 -21 -64 -31 -114 -34 -175 -57 -270 -72 -299 -8 -16
-18 -55 -21 -85 -3 -31 -14 -74 -24 -96 -20 -43 -71 -203 -71 -221 0 -6 -9
-23 -20 -36 -10 -14 -22 -45 -26 -69 -4 -24 -15 -55 -26 -68 -10 -13 -18 -31
-18 -40 0 -9 -11 -38 -25 -66 -13 -27 -25 -58 -25 -69 0 -10 -11 -31 -25 -48
-14 -16 -25 -40 -25 -52 0 -13 -9 -35 -20 -49 -11 -14 -20 -30 -20 -36 0 -5
-11 -27 -25 -47 -14 -20 -25 -44 -25 -53 0 -10 -11 -32 -25 -51 -14 -19 -25
-41 -25 -51 0 -9 -7 -22 -16 -29 -8 -8 -22 -27 -30 -44 -8 -17 -28 -53 -44
-81 -16 -27 -34 -61 -41 -75 -7 -14 -22 -35 -32 -47 -22 -24 -35 -46 -68 -110
-11 -24 -25 -43 -30 -43 -5 0 -15 -12 -22 -28 -11 -26 -47 -80 -74 -112 -43
-51 -63 -79 -63 -89 0 -7 -7 -14 -15 -18 -9 -3 -25 -23 -36 -44 -11 -22 -23
-39 -27 -39 -5 0 -21 -18 -38 -41 -42 -59 -66 -89 -90 -113 -11 -11 -25 -28
-30 -37 -20 -37 -486 -519 -500 -519 -3 0 -49 -43 -102 -95 -53 -52 -106 -98
-117 -101 -10 -4 -39 -25 -62 -48 -24 -22 -56 -51 -71 -63 -15 -12 -55 -45
-88 -73 -34 -27 -65 -50 -69 -50 -4 0 -18 -10 -30 -23 -12 -12 -39 -33 -59
-47 -21 -14 -50 -35 -66 -48 -15 -12 -35 -22 -44 -22 -8 0 -20 -8 -25 -19 -9
-16 -36 -37 -103 -77 -10 -6 -26 -18 -36 -27 -10 -10 -23 -17 -29 -17 -5 0
-20 -11 -33 -25 -13 -14 -30 -25 -38 -25 -8 0 -27 -11 -44 -25 -16 -14 -35
-25 -42 -25 -7 0 -21 -9 -31 -20 -10 -11 -24 -20 -31 -20 -7 0 -25 -11 -41
-24 -15 -13 -38 -26 -49 -30 -12 -4 -29 -15 -39 -26 -10 -11 -23 -20 -30 -20
-6 0 -26 -11 -45 -25 -19 -14 -42 -25 -52 -25 -10 0 -26 -9 -35 -20 -10 -11
-23 -20 -29 -20 -7 0 -26 -11 -42 -25 -17 -14 -38 -25 -47 -25 -9 0 -30 -11
-47 -25 -16 -14 -38 -25 -47 -25 -10 0 -29 -8 -42 -19 -13 -10 -41 -23 -61
-30 -20 -7 -42 -19 -48 -27 -7 -7 -23 -14 -35 -14 -13 0 -37 -11 -53 -25 -17
-14 -41 -25 -54 -25 -13 0 -39 -11 -58 -25 -19 -14 -40 -25 -48 -25 -8 0 -25
-9 -39 -20 -14 -11 -34 -20 -45 -20 -22 0 -56 -16 -76 -37 -7 -7 -26 -13 -40
-13 -15 0 -39 -8 -52 -17 -33 -23 -125 -62 -175 -74 -22 -5 -51 -18 -65 -28
-14 -10 -47 -21 -73 -24 -27 -4 -60 -16 -74 -27 -14 -11 -38 -20 -53 -20 -15
0 -38 -8 -51 -19 -13 -10 -44 -22 -69 -26 -25 -4 -58 -15 -75 -25 -16 -10 -47
-21 -68 -24 -21 -4 -58 -16 -83 -27 -25 -10 -57 -19 -70 -19 -14 0 -46 -11
-72 -25 -26 -14 -63 -25 -85 -25 -21 0 -58 -9 -81 -20 -24 -10 -64 -24 -88
-29 -25 -6 -58 -16 -74 -22 -16 -6 -58 -15 -93 -20 -36 -5 -73 -17 -83 -26
-11 -10 -48 -18 -103 -24 -47 -4 -96 -14 -109 -22 -12 -9 -45 -18 -72 -22 -27
-4 -67 -13 -90 -20 -22 -8 -78 -19 -123 -25 -46 -6 -100 -20 -120 -31 -26 -14
-56 -19 -116 -19 -48 -1 -96 -7 -120 -17 -22 -8 -67 -19 -100 -25 -33 -5 -98
-16 -145 -25 -47 -9 -132 -21 -190 -28 -58 -7 -125 -20 -149 -29 -29 -11 -77
-16 -145 -16 -69 0 -125 -7 -176 -20 -41 -11 -131 -25 -200 -31 -69 -5 -138
-14 -154 -19 -16 -6 -103 -15 -195 -21 -91 -6 -188 -17 -216 -25 -56 -16 -280
-34 -425 -34 -52 0 -113 -5 -135 -12 -47 -13 -67 -14 -330 -28 -120 -6 -218
-16 -245 -25 -25 -8 -63 -14 -85 -13 -87 3 -638 -23 -654 -31 -18 -10 -126
-15 -611 -30 -190 -6 -363 -16 -385 -22 -39 -10 -743 -31 -951 -29 -72 1 -111
-3 -139 -14 -32 -14 -79 -17 -255 -17 -118 0 -236 0 -261 1 -25 0 -59 -4 -75
-10 -20 -8 -168 -12 -458 -12 -340 -1 -437 -4 -463 -14 -25 -11 -109 -14 -382
-14 -324 0 -353 1 -388 19 -36 18 -80 19 -748 27 -390 4 -757 8 -815 8 -58 1
-123 7 -145 14 -37 11 -644 32 -926 31 -52 0 -106 4 -120 10 -13 5 -127 15
-254 21 -167 8 -248 16 -295 30 -36 10 -110 21 -164 25 -57 4 -112 13 -129 22
-16 8 -55 17 -86 20 -31 2 -76 13 -101 23 -25 10 -72 21 -104 25 -33 4 -71 15
-85 25 -14 10 -44 21 -65 25 -21 3 -48 13 -60 20 -12 7 -38 17 -58 20 -20 4
-51 18 -69 31 -18 13 -45 24 -59 24 -15 0 -35 9 -45 20 -10 11 -26 20 -35 20
-10 0 -34 11 -54 25 -20 14 -50 25 -66 25 -17 0 -40 10 -56 25 -15 14 -35 25
-45 25 -11 0 -24 9 -31 20 -7 11 -20 20 -28 20 -8 0 -31 10 -50 22 -19 13 -45
27 -57 33 -31 14 -106 79 -172 149 -31 32 -76 79 -101 105 -65 66 -160 177
-160 186 0 4 -10 18 -22 31 -13 12 -29 29 -36 36 -6 7 -27 28 -45 46 -17 18
-53 54 -79 81 -37 37 -48 56 -48 80 0 17 -9 54 -20 83 -11 29 -20 62 -20 74 0
28 -25 62 -32 43 -3 -8 -1 -149 3 -314 6 -226 13 -326 28 -410 11 -60 25 -161
30 -223 6 -62 15 -120 20 -130 4 -9 12 -44 15 -77 4 -33 15 -87 26 -120 10
-33 21 -84 25 -114 3 -30 12 -66 20 -81 8 -15 20 -53 28 -86 8 -32 27 -90 42
-129 15 -38 34 -90 43 -115 8 -25 23 -55 33 -68 10 -13 20 -36 24 -52 3 -16
13 -34 21 -41 8 -6 14 -16 14 -20 0 -5 16 -33 35 -62 20 -28 41 -61 48 -72 20
-33 228 -235 243 -235 7 0 19 -9 26 -19 7 -10 30 -26 51 -34 20 -9 37 -20 37
-25 0 -6 12 -13 27 -17 14 -3 38 -15 51 -26 14 -10 32 -19 42 -19 10 0 29 -9
42 -20 14 -10 47 -24 73 -30 26 -6 59 -17 74 -24 14 -7 43 -16 63 -20 20 -4
56 -15 80 -25 26 -12 81 -22 143 -26 55 -4 111 -13 125 -20 34 -17 78 -23 255
-35 83 -6 161 -12 175 -14 14 -2 63 -9 110 -15 64 -9 2359 -12 9138 -11 8864
0 9055 1 9108 19 29 11 99 23 154 27 67 4 113 13 138 26 20 10 62 21 92 24 30
4 69 14 85 24 17 10 46 21 65 25 19 4 44 13 55 20 11 7 36 16 55 20 19 4 53
17 75 30 22 12 54 26 72 29 17 4 37 13 43 21 6 7 23 16 37 20 15 3 38 15 51
26 14 10 33 19 43 19 9 0 31 11 47 25 17 14 37 25 45 25 9 0 29 11 45 25 17
14 37 25 45 25 9 0 18 4 22 9 8 14 94 71 122 82 13 5 23 12 23 17 0 5 24 24
53 42 28 19 66 45 83 59 17 14 53 44 80 66 68 56 219 200 278 265 27 30 66 71
85 91 62 63 91 95 91 103 0 5 17 29 38 55 54 66 92 123 141 213 12 20 25 39
31 43 5 3 10 14 10 23 0 10 9 36 21 57 11 22 29 67 39 100 18 62 29 95 61 180
10 28 21 73 24 100 4 28 16 67 26 88 11 21 22 66 25 100 3 34 14 89 24 122 9
33 21 87 24 120 4 33 14 81 21 108 8 26 19 114 26 195 6 81 15 154 19 162 4 8
11 51 14 95 4 44 10 105 12 135 9 89 5 1099 -5 1291 -5 97 -13 185 -19 195 -6
11 -15 107 -22 214 -7 115 -17 207 -25 225 -7 17 -16 73 -20 125 -4 52 -15
131 -25 175 -10 44 -20 123 -24 177 -3 53 -13 116 -22 140 -8 23 -21 88 -29
143 -15 114 -41 247 -62 318 -8 27 -19 87 -24 135 -6 48 -19 107 -29 132 -10
25 -21 73 -25 105 -4 33 -15 86 -26 118 -10 31 -19 66 -19 77 0 11 -9 46 -19
77 -11 32 -23 83 -26 113 -4 30 -14 71 -22 90 -9 19 -24 71 -33 115 -26 111
-49 195 -65 230 -7 17 -16 53 -20 80 -4 28 -15 70 -25 95 -24 59 -70 214 -70
233 0 8 -11 39 -25 69 -14 29 -25 66 -25 82 0 16 -11 54 -23 85 -31 73 -67
182 -67 201 0 8 -11 38 -25 65 -13 28 -25 61 -25 75 0 14 -10 45 -21 70 -11
25 -36 92 -55 149 -20 57 -41 113 -48 125 -8 11 -17 39 -21 61 -4 22 -15 56
-25 75 -10 19 -30 69 -44 110 -15 41 -36 92 -46 112 -11 20 -20 45 -20 54 0 9
-11 41 -25 70 -14 28 -41 92 -60 140 -19 48 -39 92 -44 98 -4 6 -11 24 -15 41
-4 16 -27 71 -52 122 -24 51 -44 99 -44 107 0 7 -8 24 -19 37 -10 13 -21 35
-25 49 -4 14 -27 66 -51 115 -24 50 -49 101 -54 115 -6 14 -15 32 -20 40 -17
27 -109 224 -116 250 -4 14 -16 36 -26 49 -11 13 -19 30 -19 37 0 7 -20 53
-45 103 -25 50 -45 94 -45 98 0 4 -11 30 -24 58 -40 83 -76 167 -76 179 0 6
-9 22 -20 36 -11 14 -20 34 -20 45 0 12 -9 39 -21 60 -22 45 -79 185 -79 198
0 5 -9 21 -19 36 -11 15 -23 45 -27 66 -4 22 -13 49 -20 61 -12 18 -27 57 -69
179 -7 22 -23 58 -34 80 -12 21 -21 51 -21 65 0 14 -7 35 -15 48 -15 21 -33
68 -74 192 -10 30 -26 69 -35 85 -9 17 -16 41 -16 55 0 14 -11 48 -25 75 -13
28 -25 54 -25 58 0 4 -8 27 -19 50 -10 23 -22 62 -26 86 -4 24 -15 58 -25 75
-10 17 -22 49 -26 71 -4 22 -24 83 -44 135 -21 52 -41 115 -45 140 -4 25 -15
59 -25 75 -10 17 -21 50 -25 75 -4 25 -13 59 -20 75 -20 47 -55 154 -69 215
-7 30 -20 69 -28 85 -9 17 -19 49 -23 70 -8 45 -50 183 -70 231 -7 17 -17 53
-20 80 -4 27 -18 75 -31 106 -13 32 -24 68 -24 80 0 28 -45 178 -70 233 -10
22 -20 64 -24 94 -3 30 -14 77 -25 105 -20 54 -44 143 -65 241 -7 33 -18 71
-25 84 -8 13 -17 58 -23 99 -5 41 -15 87 -23 101 -14 28 -75 275 -75 305 0 10
-9 36 -19 59 -10 23 -22 73 -26 112 -4 38 -14 84 -22 102 -12 31 -29 103 -68
299 -8 40 -21 89 -29 110 -8 22 -20 78 -25 126 -6 49 -15 97 -21 108 -6 12
-20 71 -31 133 -47 261 -57 313 -67 339 -6 15 -16 71 -21 125 -6 54 -17 121
-25 148 -8 28 -20 91 -27 140 -6 50 -15 97 -19 106 -5 8 -14 73 -20 145 -7 71
-18 143 -26 160 -8 19 -18 100 -24 205 -7 103 -17 187 -25 206 -10 22 -18 117
-26 307 -12 289 -7 447 16 487 8 13 23 42 33 64 11 22 27 46 36 54 9 7 16 18
16 24 0 6 21 42 47 80 40 59 48 78 51 128 l4 60 -61 59 c-33 33 -66 60 -72 60
-6 0 -22 9 -36 20 -14 11 -38 20 -53 20 -15 0 -37 9 -50 20 -13 11 -35 23 -49
27 -14 3 -39 14 -56 24 -16 10 -48 21 -70 24 -38 6 -42 4 -75 -35z"/>
</g>
</svg>
