<?xml version="1.0" standalone="no"?>
<!DOCTYPE svg PUBLIC "-//W3C//DTD SVG 20010904//EN"
 "http://www.w3.org/TR/2001/REC-SVG-20010904/DTD/svg10.dtd">
<svg version="1.0" xmlns="http://www.w3.org/2000/svg"
 width="5472.000000pt" height="4220.000000pt" viewBox="0 0 5472.000000 4220.000000"
 preserveAspectRatio="xMidYMid meet">

<g transform="translate(0.000000,4220.000000) scale(0.100000,-0.100000)"
fill="#000000" stroke="none">
<path d="M47832 20445 c-12 -12 -22 -28 -22 -34 0 -6 -7 -11 -16 -11 -8 0 -12
4 -9 10 4 6 -1 7 -11 3 -14 -5 -16 -3 -11 12 6 15 5 16 -8 5 -8 -7 -15 -8 -15
-2 0 5 -9 12 -20 15 -11 3 -18 1 -14 -4 3 -5 0 -9 -5 -9 -6 0 -11 -6 -11 -14
0 -7 -8 -20 -17 -27 -9 -8 -14 -9 -10 -3 4 7 -2 14 -14 17 -17 5 -18 3 -7 -11
10 -13 7 -12 -19 3 -18 10 -29 23 -26 29 4 6 -1 5 -11 -3 -9 -8 -24 -28 -32
-43 -11 -22 -19 -27 -28 -19 -9 7 -17 3 -30 -14 -12 -16 -29 -25 -46 -25 -14
0 -46 -9 -70 -21 -24 -12 -53 -23 -64 -24 -26 -4 -89 -28 -96 -36 -3 -4 -34
-21 -70 -40 -36 -18 -67 -35 -70 -38 -3 -4 -23 -18 -45 -33 -22 -15 -53 -39
-70 -53 -16 -13 -35 -29 -41 -33 -5 -5 -37 -29 -70 -53 -81 -60 -115 -92 -273
-252 -75 -76 -143 -152 -153 -168 -9 -17 -40 -56 -70 -87 -76 -82 -198 -233
-198 -249 -1 -4 -23 -33 -50 -63 -28 -30 -50 -60 -50 -67 0 -7 -6 -16 -14 -20
-17 -9 -75 -86 -95 -124 -7 -14 -28 -43 -47 -64 -19 -21 -34 -43 -34 -49 -1
-6 -23 -40 -51 -76 -27 -36 -67 -92 -89 -125 -22 -33 -43 -64 -48 -70 -28 -35
-52 -75 -52 -85 0 -7 -31 -56 -68 -109 -93 -132 -112 -163 -181 -296 -44 -84
-64 -118 -72 -125 -4 -3 -9 -15 -13 -27 -4 -13 -12 -23 -17 -23 -5 0 -9 -7 -9
-15 0 -8 -4 -15 -9 -15 -5 0 -13 -10 -17 -22 -4 -13 -17 -39 -30 -58 -13 -19
-24 -41 -24 -48 0 -7 -9 -23 -20 -35 -11 -12 -18 -27 -16 -34 3 -7 2 -13 -3
-13 -8 0 -20 -22 -95 -180 -17 -36 -34 -66 -38 -68 -5 -2 -8 -10 -8 -17 0 -7
-3 -15 -8 -17 -11 -5 -121 -234 -126 -265 -3 -14 -9 -29 -14 -32 -13 -9 -33
-49 -31 -64 2 -18 -12 -57 -21 -57 -4 0 -11 -12 -15 -27 -3 -15 -11 -31 -16
-34 -6 -3 -11 -12 -13 -20 -1 -8 -16 -41 -33 -74 -16 -33 -38 -82 -48 -110
-10 -27 -22 -55 -27 -61 -4 -6 -9 -19 -11 -30 -2 -10 -13 -39 -26 -62 -12 -24
-20 -46 -17 -49 3 -3 -2 -12 -10 -20 -8 -8 -12 -23 -9 -33 3 -10 -1 -25 -10
-33 -8 -9 -15 -20 -15 -26 0 -14 -33 -84 -43 -92 -4 -3 -9 -16 -12 -29 -2 -12
-11 -30 -18 -39 -7 -9 -22 -38 -32 -66 -10 -27 -31 -78 -47 -112 -15 -34 -28
-69 -28 -78 0 -9 -7 -23 -15 -31 -8 -9 -15 -24 -15 -33 0 -15 -40 -101 -79
-171 -5 -8 -16 -31 -25 -50 -9 -19 -20 -42 -25 -50 -28 -43 -119 -239 -114
-244 4 -3 1 -6 -5 -6 -7 0 -12 -7 -12 -16 0 -19 -32 -75 -67 -117 -13 -16 -23
-37 -23 -48 0 -10 -4 -19 -10 -19 -5 0 -10 -6 -10 -14 0 -8 -4 -16 -8 -18 -10
-4 -138 -207 -149 -234 -3 -11 -9 -21 -13 -24 -4 -3 -25 -30 -48 -62 -23 -31
-53 -69 -68 -85 -15 -15 -42 -50 -60 -78 -18 -27 -47 -66 -64 -85 -17 -19 -38
-45 -47 -57 -8 -13 -20 -23 -25 -23 -10 0 -48 -38 -162 -158 -27 -29 -55 -52
-63 -52 -7 0 -16 -7 -19 -15 -4 -8 -11 -15 -18 -15 -10 0 -163 -103 -176 -119
-3 -3 -21 -15 -40 -25 -19 -11 -37 -22 -40 -26 -3 -3 -27 -17 -55 -30 -27 -13
-52 -26 -55 -29 -3 -3 -52 -30 -110 -59 -126 -63 -164 -85 -168 -94 -2 -5 -10
-8 -18 -8 -8 0 -14 -4 -14 -8 0 -5 -19 -14 -42 -21 -24 -7 -92 -37 -153 -66
-147 -71 -301 -143 -347 -162 -21 -8 -38 -19 -38 -25 0 -5 -4 -7 -9 -3 -11 6
-121 -44 -133 -60 -4 -5 -8 -7 -8 -3 0 8 -60 -16 -197 -78 -17 -8 -38 -14 -47
-14 -9 0 -16 -3 -16 -8 0 -4 -15 -12 -32 -18 -69 -24 -163 -67 -166 -75 -2 -5
-7 -9 -12 -9 -5 0 -37 -13 -72 -29 -35 -16 -80 -33 -101 -36 -21 -4 -61 -18
-88 -31 -27 -13 -53 -24 -58 -24 -5 0 -22 -7 -37 -15 -16 -8 -37 -15 -46 -15
-9 0 -19 -4 -22 -9 -3 -5 -18 -12 -32 -15 -28 -7 -108 -41 -134 -57 -32 -19
-83 -39 -100 -39 -10 0 -20 -4 -22 -9 -1 -5 -19 -12 -39 -15 -19 -3 -49 -12
-65 -21 -16 -8 -35 -15 -42 -15 -7 0 -20 -4 -30 -9 -18 -10 -39 -18 -197 -77
-55 -20 -102 -40 -105 -44 -3 -4 -33 -17 -68 -29 -34 -11 -71 -26 -82 -31 -11
-6 -29 -14 -40 -20 -10 -5 -26 -7 -35 -4 -8 4 -25 0 -38 -8 -12 -8 -42 -20
-67 -27 -42 -11 -190 -63 -235 -81 -11 -5 -54 -20 -95 -35 -41 -15 -82 -29
-90 -32 -8 -3 -22 -7 -30 -9 -8 -2 -16 -8 -18 -13 -2 -6 -20 -13 -40 -17 -20
-4 -43 -13 -50 -21 -7 -7 -24 -13 -37 -13 -13 0 -27 -4 -30 -10 -3 -5 -16 -10
-29 -10 -12 0 -27 -5 -32 -10 -6 -6 -39 -15 -74 -21 -36 -6 -69 -14 -75 -18
-5 -4 -37 -16 -70 -26 -33 -10 -69 -21 -80 -25 -64 -25 -63 -25 -100 -35 -16
-4 -35 -11 -40 -16 -6 -4 -30 -11 -53 -15 -23 -4 -42 -10 -42 -15 0 -5 -9 -9
-20 -9 -23 0 -70 -20 -70 -30 0 -4 -20 -11 -45 -14 -25 -4 -45 -11 -45 -15 0
-5 -26 -13 -57 -18 -57 -10 -218 -55 -258 -72 -25 -11 -157 -51 -168 -51 -4 0
-21 -7 -37 -15 -17 -9 -30 -13 -30 -9 0 3 -12 -1 -26 -11 -15 -9 -42 -19 -61
-20 -19 -2 -40 -7 -46 -12 -17 -12 -112 -44 -123 -42 -17 5 -79 -13 -110 -32
-18 -11 -38 -17 -47 -13 -8 3 -41 -3 -73 -12 -33 -10 -63 -18 -69 -19 -5 -1
-17 -4 -25 -7 -26 -10 -135 -43 -145 -44 -21 -1 -81 -16 -100 -24 -19 -8 -47
-16 -150 -41 -22 -6 -50 -17 -63 -25 -12 -8 -41 -17 -65 -19 -37 -4 -77 -17
-143 -47 -11 -5 -24 -8 -30 -7 -16 4 -94 -13 -99 -22 -3 -4 -26 -11 -50 -15
-25 -3 -48 -10 -51 -15 -3 -5 -11 -9 -18 -9 -8 0 -31 -8 -52 -17 -22 -9 -43
-16 -47 -15 -4 1 -22 -6 -40 -15 -18 -10 -43 -18 -57 -20 -14 -1 -26 -7 -28
-12 -2 -6 -20 -13 -40 -17 -20 -4 -39 -10 -42 -13 -6 -7 -67 -31 -97 -38 -13
-3 -23 -9 -23 -12 0 -4 -13 -8 -30 -8 -16 0 -38 -7 -48 -16 -9 -9 -33 -19 -52
-22 -19 -3 -39 -10 -45 -15 -5 -4 -14 -9 -20 -9 -32 -3 -245 -96 -255 -111 -3
-5 -19 -10 -36 -13 -34 -5 -107 -40 -143 -68 -13 -11 -30 -19 -38 -19 -7 0
-31 -11 -53 -25 -22 -14 -48 -25 -57 -25 -23 0 -194 -87 -209 -106 -6 -8 -15
-14 -19 -14 -9 0 -97 -42 -105 -50 -12 -13 -60 -40 -71 -40 -17 0 -171 -93
-278 -167 -33 -24 -65 -43 -71 -43 -5 0 -10 -3 -10 -8 0 -4 -17 -16 -37 -27
-21 -11 -54 -32 -73 -48 -46 -37 -49 -39 -93 -61 -21 -11 -48 -29 -61 -40 -44
-41 -171 -141 -211 -167 -22 -14 -83 -66 -136 -115 -52 -49 -124 -114 -159
-144 -35 -30 -81 -73 -101 -95 -21 -22 -86 -89 -144 -150 -59 -60 -132 -144
-163 -185 -31 -41 -71 -90 -89 -109 -18 -19 -33 -37 -33 -41 0 -3 -15 -23 -34
-44 -19 -20 -47 -58 -62 -84 -15 -26 -30 -49 -33 -52 -13 -11 -91 -117 -91
-124 0 -4 -6 -14 -12 -21 -26 -28 -35 -41 -80 -110 -77 -120 -98 -155 -92
-155 3 0 -2 -7 -10 -16 -9 -8 -16 -22 -16 -30 0 -8 -4 -14 -10 -14 -5 0 -10
-11 -10 -25 0 -16 -6 -25 -15 -25 -8 0 -15 -6 -15 -13 0 -8 -9 -22 -20 -32
-11 -10 -20 -24 -20 -31 0 -7 -6 -19 -13 -26 -21 -22 -87 -155 -80 -162 3 -3
2 -6 -4 -6 -6 0 -27 -32 -47 -70 -21 -39 -34 -70 -30 -70 4 0 -3 -11 -15 -24
-13 -14 -20 -29 -16 -35 3 -6 2 -11 -3 -11 -6 0 -13 -12 -17 -27 -3 -15 -10
-30 -14 -33 -16 -10 -160 -319 -165 -353 -1 -8 -7 -21 -13 -28 -5 -8 -13 -29
-17 -47 -3 -19 -14 -46 -24 -60 -10 -15 -38 -76 -61 -137 -24 -60 -49 -124
-57 -142 -8 -17 -14 -35 -14 -40 0 -5 -11 -38 -26 -74 -14 -35 -25 -76 -26
-91 -1 -16 -4 -28 -8 -28 -10 0 -43 -100 -36 -107 3 -3 -2 -12 -10 -20 -8 -9
-13 -22 -10 -29 3 -8 2 -14 -3 -14 -5 0 -11 -22 -15 -50 -4 -27 -10 -50 -15
-50 -8 0 -27 -57 -56 -165 -8 -27 -26 -90 -40 -140 -36 -120 -55 -207 -48
-218 3 -5 0 -13 -6 -17 -7 -4 -15 -33 -17 -66 -3 -32 -9 -61 -13 -64 -4 -3
-11 -29 -14 -59 -4 -30 -11 -57 -17 -61 -10 -6 -14 -25 -31 -150 -6 -41 -15
-78 -20 -81 -9 -5 -18 -53 -22 -114 -1 -16 -5 -32 -9 -35 -4 -3 -9 -26 -12
-50 -3 -25 -10 -72 -16 -105 -6 -33 -12 -73 -14 -90 -2 -16 -11 -73 -19 -125
-19 -109 -43 -310 -52 -420 -3 -41 -9 -113 -14 -160 -4 -47 -3 -86 1 -88 11
-5 10 -30 -2 -34 -13 -4 -17 -148 -4 -156 6 -4 16 -34 24 -67 8 -33 20 -71 27
-85 7 -14 13 -31 13 -38 0 -7 4 -20 9 -30 15 -27 51 -111 51 -117 0 -8 84
-182 103 -215 9 -14 35 -59 59 -100 125 -216 370 -479 568 -609 30 -20 57 -39
58 -43 2 -5 8 -8 13 -8 5 0 39 -19 76 -42 82 -50 246 -129 328 -157 33 -11 80
-28 105 -37 44 -16 161 -50 250 -73 145 -38 500 -93 740 -115 359 -34 1424
-71 2585 -92 228 -4 395 -11 402 -16 20 -16 1663 1 1663 17 0 14 -21 12 710
35 667 21 1246 45 1655 70 94 5 289 17 435 25 343 20 833 56 1170 85 471 42
585 53 740 70 209 23 399 46 495 60 39 5 111 14 160 21 92 11 434 64 630 98
111 19 247 46 430 83 55 11 118 24 140 28 124 26 624 150 700 175 22 7 58 18
80 24 22 6 129 38 238 71 173 54 245 78 397 134 19 7 71 26 115 41 44 15 104
38 133 51 29 13 58 24 64 24 6 0 34 11 62 24 28 13 80 36 116 51 36 15 107 47
159 71 51 24 95 44 97 44 10 0 373 181 449 225 311 178 326 186 335 195 3 3
46 30 95 60 193 117 461 306 643 455 68 55 142 115 165 133 163 131 516 478
682 672 244 284 363 449 582 805 25 41 83 144 108 191 14 27 30 56 35 64 27
42 144 303 194 430 31 80 62 156 67 170 6 13 19 51 30 85 11 33 29 87 39 120
11 33 26 83 34 110 57 210 77 290 92 355 8 41 22 104 30 140 61 280 106 685
125 1120 11 247 10 334 -5 647 -36 772 -127 1430 -346 2508 -39 192 -51 246
-120 560 -18 77 -42 190 -55 250 -14 61 -32 142 -41 180 -9 39 -22 99 -29 135
-7 36 -29 135 -49 220 -20 85 -46 200 -57 255 -11 55 -31 145 -44 200 -24 99
-27 116 -65 290 -27 120 -75 336 -106 465 -13 58 -30 137 -38 175 -13 64 -36
169 -57 255 -4 19 -15 67 -23 105 -8 39 -29 131 -46 205 -17 74 -49 218 -71
320 -22 102 -49 221 -59 265 -11 44 -27 112 -34 150 -8 39 -31 142 -50 230
-154 678 -204 1004 -237 1540 -33 536 46 1083 215 1477 50 117 142 284 189
343 4 6 33 44 64 85 32 41 62 78 67 82 13 9 11 10 -54 40 l-55 25 -702 -5
c-428 -3 -708 -1 -715 5 -8 5 -73 5 -170 0 -137 -9 -166 -8 -228 7 -71 18 -72
18 -91 -3 -22 -23 -35 -26 -44 -11 -16 26 -41 28 -63 5z m-3437 -10315 c77 -6
205 -17 285 -25 80 -9 192 -20 250 -26 58 -5 166 -19 240 -30 74 -11 176 -24
225 -30 50 -5 97 -11 105 -14 8 -3 83 -14 165 -24 83 -11 177 -25 210 -30 68
-11 128 -20 330 -51 77 -12 167 -26 200 -31 33 -5 112 -16 175 -24 63 -8 210
-28 325 -45 116 -17 253 -38 305 -45 52 -8 124 -19 160 -24 36 -5 117 -17 180
-26 63 -8 156 -22 205 -30 50 -8 187 -28 305 -45 118 -17 242 -34 275 -39 33
-5 125 -19 205 -30 141 -21 369 -61 460 -82 270 -62 585 -179 686 -256 17 -12
38 -23 46 -23 43 0 17 -33 -92 -119 -167 -132 -324 -203 -555 -252 -223 -48
-439 -50 -785 -9 -93 11 -428 65 -500 80 -40 9 -97 19 -330 59 -30 6 -104 17
-165 26 -60 9 -137 20 -170 25 -33 5 -130 19 -215 30 -85 11 -186 25 -225 30
-72 11 -500 54 -635 65 -41 3 -120 10 -175 15 -102 9 -296 22 -645 40 -107 6
-391 11 -630 12 -425 2 -437 1 -508 -20 -100 -31 -145 -75 -162 -157 -6 -33
-16 -76 -21 -96 -31 -123 -143 -174 -400 -186 -211 -9 -388 23 -739 136 -85
27 -168 55 -185 61 -16 7 -39 16 -50 21 -11 4 -36 11 -55 15 -19 3 -39 10 -45
14 -5 4 -21 10 -35 12 -14 3 -52 13 -85 23 -250 71 -514 113 -855 135 -157 10
-769 35 -1120 46 -91 2 -293 9 -450 14 -300 11 -1694 15 -1777 6 -26 -3 -160
-11 -298 -16 -339 -15 -837 -52 -1060 -81 -191 -24 -240 -30 -420 -54 -182
-24 -215 -29 -385 -60 -41 -8 -115 -21 -165 -30 -49 -8 -119 -22 -155 -30
-234 -50 -413 -92 -525 -122 -49 -13 -137 -37 -195 -53 -58 -15 -172 -49 -255
-75 -219 -69 -206 -68 -160 -4 120 168 193 248 223 249 8 0 29 7 48 15 19 8
49 22 68 30 19 8 39 15 45 15 6 0 19 4 29 9 9 5 67 26 127 47 61 20 114 41
119 46 6 4 18 8 29 8 10 0 51 11 90 25 40 13 146 45 237 71 91 25 188 52 215
61 28 8 61 17 75 20 57 11 351 75 430 92 47 11 126 27 175 35 50 8 155 27 235
41 183 31 619 93 748 105 53 5 138 14 187 19 121 14 419 40 585 51 589 41 584
41 1275 69 816 34 2011 18 2925 -40 96 -6 200 -9 230 -7 l55 3 10 60 c37 220
331 385 738 415 144 11 809 4 992 -10z"/>
<path d="M50100 20262 c-42 -4 -46 -9 -198 -207 -50 -66 -138 -226 -188 -343
-249 -583 -288 -1380 -113 -2362 31 -177 78 -403 135 -655 19 -88 42 -191 50
-230 7 -38 23 -106 34 -150 10 -44 37 -163 59 -265 22 -102 54 -246 71 -320
17 -74 38 -166 46 -205 8 -38 19 -86 23 -105 21 -86 44 -191 57 -255 8 -38 25
-117 38 -175 31 -129 79 -345 106 -465 38 -174 41 -191 65 -290 13 -55 33
-145 44 -200 11 -55 37 -170 57 -255 20 -85 42 -184 49 -220 7 -36 20 -96 29
-135 9 -38 27 -119 41 -180 13 -60 37 -173 55 -250 69 -314 81 -368 120 -560
219 -1078 310 -1736 346 -2508 15 -313 16 -400 5 -647 -19 -435 -64 -840 -125
-1120 -8 -36 -22 -99 -30 -140 -15 -65 -35 -145 -92 -355 -8 -27 -23 -77 -34
-110 -10 -33 -28 -87 -39 -120 -11 -34 -24 -72 -30 -85 -5 -14 -36 -90 -67
-170 -50 -127 -167 -388 -194 -430 -5 -8 -21 -37 -35 -64 -25 -47 -83 -150
-108 -191 -219 -356 -338 -521 -582 -805 -166 -194 -519 -541 -682 -672 -23
-18 -97 -78 -165 -133 -182 -149 -450 -338 -643 -455 -49 -30 -92 -57 -95 -60
-9 -9 -24 -17 -335 -195 -76 -44 -439 -225 -449 -225 -2 0 -46 -20 -97 -44
-52 -24 -123 -56 -159 -71 -36 -15 -88 -38 -116 -51 -28 -13 -56 -24 -62 -24
-6 0 -35 -11 -64 -24 -29 -13 -89 -36 -133 -51 -44 -15 -96 -34 -115 -41 -152
-56 -224 -80 -397 -134 -109 -33 -216 -65 -238 -71 -22 -6 -58 -17 -80 -24
-76 -25 -576 -149 -700 -175 -22 -4 -85 -17 -140 -28 -183 -37 -319 -64 -430
-83 -196 -34 -538 -87 -630 -98 -49 -7 -121 -16 -160 -21 -96 -14 -286 -37
-495 -60 -155 -17 -269 -28 -740 -70 -337 -29 -827 -65 -1170 -85 -146 -8
-341 -20 -435 -25 -409 -25 -988 -49 -1655 -70 -731 -23 -710 -21 -710 -35 0
-16 -1643 -33 -1663 -17 -7 5 -174 12 -402 16 -1161 21 -2226 58 -2585 92
-240 22 -595 77 -740 115 -89 23 -206 57 -250 73 -25 9 -72 26 -105 37 -33 11
-120 49 -193 85 -72 35 -140 64 -150 64 -10 0 -42 16 -72 35 -30 19 -80 46
-110 61 -30 14 -75 43 -100 63 -25 20 -59 47 -76 59 -36 25 -257 266 -314 342
-22 29 -63 77 -92 105 -29 29 -61 61 -71 71 -9 11 -29 29 -42 41 -17 15 -25
33 -25 56 0 34 -38 137 -78 212 l-22 40 2 -200 c2 -181 9 -343 22 -480 11
-118 26 -251 30 -270 2 -11 7 -45 11 -75 3 -30 13 -88 21 -129 8 -40 17 -85
19 -100 2 -14 9 -44 14 -66 5 -22 15 -62 21 -90 6 -27 15 -58 20 -67 6 -10 10
-24 10 -31 0 -14 70 -226 110 -329 77 -205 265 -448 440 -570 84 -59 265 -158
287 -158 8 0 21 -4 31 -10 30 -16 292 -93 357 -105 11 -2 47 -9 80 -15 119
-22 252 -41 360 -50 61 -5 133 -12 160 -15 28 -2 151 -9 275 -14 304 -13
17631 -14 17720 -1 36 5 99 16 140 24 41 8 99 19 128 25 29 5 67 15 85 20 17
6 97 31 177 56 250 78 381 135 600 258 439 248 834 616 1081 1007 86 136 133
259 231 610 58 206 103 458 138 759 29 260 31 295 34 821 3 494 2 525 -35 970
-12 140 -23 275 -24 300 -2 25 -8 58 -14 73 -6 16 -11 49 -12 75 0 26 -4 72
-9 102 -5 30 -14 93 -20 140 -6 47 -13 94 -16 105 -2 11 -8 52 -14 90 -5 39
-14 88 -19 110 -5 22 -15 69 -21 105 -6 36 -18 97 -25 135 -8 39 -32 165 -55
280 -22 116 -44 226 -50 245 -10 38 -43 179 -65 275 -7 33 -18 76 -23 95 -32
117 -76 280 -83 310 -11 47 -27 109 -54 205 -13 44 -31 107 -40 140 -9 33 -20
68 -26 77 -5 10 -9 26 -9 35 0 10 -7 38 -15 63 -60 183 -98 301 -130 405 -21
65 -41 126 -45 135 -4 8 -24 67 -45 130 -20 63 -66 194 -102 290 -37 96 -77
204 -90 240 -13 36 -27 74 -32 85 -5 11 -28 70 -51 130 -23 61 -48 121 -56
135 -15 29 -94 217 -94 225 0 3 -11 28 -25 57 -14 28 -25 55 -25 60 0 4 -30
70 -66 145 -98 204 -149 314 -165 351 -8 17 -17 32 -21 32 -5 0 -8 6 -8 14 0
12 -39 100 -135 301 -51 107 -79 173 -175 405 -40 96 -76 179 -81 184 -5 6 -9
16 -9 24 0 7 -10 34 -21 60 -42 90 -77 180 -84 213 -4 19 -11 39 -15 44 -4 6
-20 44 -35 85 -15 41 -33 89 -40 105 -23 55 -124 328 -160 435 -20 58 -43 119
-51 137 -8 17 -14 38 -14 46 0 8 -7 28 -15 43 -8 16 -15 37 -15 46 0 9 -11 43
-24 75 -26 66 -85 244 -146 443 -23 74 -46 143 -51 152 -5 10 -9 26 -9 35 0
10 -7 31 -15 47 -8 15 -15 37 -15 47 0 16 -12 52 -40 124 -4 11 -18 56 -30
100 -12 44 -34 115 -47 158 -14 43 -31 102 -38 130 -15 58 -31 116 -71 257
-14 52 -32 118 -39 145 -7 28 -18 62 -24 78 -6 15 -13 38 -15 50 -3 12 -14 56
-26 97 -28 99 -98 369 -115 445 -8 33 -26 105 -40 160 -15 55 -28 109 -31 120
-10 52 -24 105 -39 160 -10 33 -21 78 -26 100 -5 22 -15 67 -23 100 -36 152
-48 204 -56 250 -5 28 -17 82 -25 120 -9 39 -20 90 -25 115 -5 25 -16 77 -24
115 -8 39 -21 104 -29 145 -8 41 -24 120 -35 175 -43 209 -88 447 -103 545 -6
36 -14 90 -19 120 -20 126 -55 386 -80 595 -5 39 -13 120 -19 180 -5 61 -13
151 -18 200 -19 208 -4 508 26 535 3 3 15 21 25 40 10 19 36 60 56 91 82 122
99 191 64 265 -22 47 -138 128 -220 154 -21 7 -52 21 -69 30 -51 31 -128 55
-165 52z"/>
</g>
</svg>
